<?xml version="1.0" encoding="utf-8"?>
<!-- Generator: Adobe Illustrator 25.0.0, SVG Export Plug-In . SVG Version: 6.00 Build 0)  -->
<svg version="1.1" id="Layer_1" xmlns="http://www.w3.org/2000/svg" xmlns:xlink="http://www.w3.org/1999/xlink" x="0px" y="0px"
	 viewBox="0 0 206.2 63.9" style="enable-background:new 0 0 206.2 63.9;" xml:space="preserve">
<style type="text/css">
	.st0{fill-rule:evenodd;clip-rule:evenodd;fill:#AD1E23;}
	.st1{fill:#FFFFFF;}
	.st2{fill:#231F20;}
</style>
<g>
	<g>
		<g>
			<g>
				<path class="st0" d="M60.2,8.7c-1.7-2.1-3.3-2.8-4.6-1.9c-0.7,0.5-1.1,1.3-1.2,2.3c-0.1,1.1,0.2,2.2,0.9,3.4
					c-0.8,0.7-5.6,4.9-8.3,7.1c-1.8-1.6-4.1-2.8-6.6-3.4c-0.2-0.1-0.3-0.1-0.5-0.2c0.5-2,1.5-7.4,2-10.3c0.6-0.1,1.2-0.3,1.6-0.6
					c1.1-0.7,1.5-1.5,1.3-2.6c-0.2-1.2-1.2-1.8-2.8-2c-0.9-0.1-1.6,0-2.2,0.4c-0.8,0.5-1.1,1.3-0.9,2.4c0.2,1.2,0.7,1.8,1.5,2.2
					c-0.2,1.9-1,6.1-1.1,6.6c-0.2,1.3-0.8,2.6-1.2,3.6l0,0c-0.6-0.1-1.3-0.1-1.8-0.1c-2.7,0-5.2,0.7-7.3,1.7
					c-1.7-1.9-9.2-12.5-9.8-13.8c1.3-1.1,1.6-2,1.2-2.9c-0.5-0.5-1-0.7-1.6-0.7s-1.3,0.3-2,0.9c-1.5,1.3-2,2.3-1.4,3.3
					C16,5,17,5,18.4,4c1.3,1.4,8,11.3,9.4,13.9c-2.7,1.6-4.8,4.1-5.7,7C17.8,23.9,9,21.8,7.3,21.4c0.2-1.2,0-2.1-0.6-3
					c-1-1.5-2.3-2.1-3.9-1.7c-1.7,0.4-2.6,1.9-2.8,4.5c-0.1,1.3,0.2,2.5,0.8,3.4c0.5,0.8,1.2,1.3,1.9,1.3c0.8,0.2,1.5,0,2.3-0.5
					c0.8-0.6,1.4-1.3,1.9-2.6C8.7,23,17.6,25,21.9,26c-0.2,0.8-0.3,1.6-0.3,2.5c0,3.7,1.7,7,4.5,9.4c-1.6,1.9-4.6,5.5-6.1,7.2
					c-0.8-0.4-1.4-0.4-2,0c-0.5,0.4-0.8,0.8-0.8,1.4c0.1,0.7,0.5,1.3,1.2,2c0.8,0.7,1.5,0.9,2.3,0.4c1-0.6,1.2-1.4,0.7-2.5
					c0.6-1,3.7-5.1,5.5-7.9c2.6,1.9,5.9,3.1,9.5,3.1c0.5,0,0.9,0,1.3-0.1c0.6,1.3,2.2,6,2.9,7.7c-0.7,0.2-1.2,0.6-1.3,1.1
					s-0.2,1,0.1,1.4c0.5,0.8,1.3,1,2.3,0.5c0.2-0.1,0.4-0.2,0.6-0.3c0.9-0.6,1.1-1.2,0.6-1.9c-0.4-0.6-0.9-0.9-1.6-0.9
					c-0.4-1.3-1.8-5.9-2.3-7.8c6.9-1.1,12.2-6.4,12.2-12.8c0-3.2-1.3-6.1-3.5-8.4c2.7-2.4,7.2-6.5,8-7.2c0.6,0.6,1.3,0.9,2.2,0.9
					c0.9,0.1,1.7-0.1,2.3-0.6C62,12.3,62,10.7,60.2,8.7z"/>
			</g>
		</g>
		<g>
			<path class="st1" d="M39.5,29.5c-1.9-1.6-3.9-2.4-6-2.4c-2,0-3.2,1.3-3.5,3.8c-0.1,1.3,0.5,2.8,1.7,4.6c0.7,1,1.6,1.5,2.9,1.5
				c2.1,0,3.9-1.3,5.3-3.7c0.5-0.9,0.8-1.4,0.8-1.9C40.8,30.8,40.4,30.2,39.5,29.5z"/>
			<path class="st1" d="M49.2,29.5c0-1.9-0.6-2.9-1.5-2.9c-0.8,0-1.5,0.7-2.3,2c-0.3,0.6-0.5,1.2-0.5,1.6c0,0.9,0.5,1.6,1.5,2.4
				c0.6,0.4,1,0.6,1.3,0.6C48.9,33.2,49.2,32,49.2,29.5z"/>
		</g>
	</g>
	<g>
		<g>
			<path class="st2" d="M63.8,39c0.4,0.4,0.9,0.7,1.4,0.9c0.6,0.2,1.2,0.3,1.7,0.3c0.6,0,1.1-0.1,1.5-0.3s1-0.5,1.3-0.9
				c0.1-0.1,0.2-0.2,0.2-0.4c0-0.1,0.1-0.3,0.1-0.4c0-0.2,0-0.3-0.1-0.4c-0.1-0.1-0.2-0.3-0.3-0.4c-0.3-0.2-0.6-0.4-0.9-0.4
				c-0.3,0-0.6,0.1-0.8,0.3c-0.2,0.2-0.4,0.3-0.6,0.4c-0.2,0.1-0.5,0.1-0.8,0.1s-0.6-0.1-0.8-0.2c-0.2-0.1-0.5-0.3-0.6-0.5
				c-0.2-0.2-0.3-0.4-0.4-0.7c-0.1-0.2-0.2-0.5-0.2-0.8v-1.9h3c0.3,0,0.6-0.1,0.8-0.4c0.2-0.2,0.4-0.5,0.4-0.8s-0.1-0.6-0.3-0.9
				c-0.2-0.2-0.5-0.4-0.9-0.4h-3V30c0-0.4-0.2-0.6-0.4-0.9c-0.2-0.2-0.5-0.4-0.9-0.4c-0.3,0-0.6,0.1-0.9,0.3
				c-0.2,0.2-0.4,0.5-0.4,0.8v5.8c0,0.7,0.1,1.3,0.4,1.7C63.1,38.1,63.4,38.6,63.8,39z M72.1,40.2c0.3,0,0.6-0.1,0.8-0.4
				c0.2-0.2,0.3-0.5,0.3-0.8v-3.2c0.1-0.5,0.3-1,0.7-1.3c0.4-0.4,0.8-0.6,1.3-0.6c0.3,0,0.6,0.1,0.8,0.2c0.2,0.1,0.5,0.3,0.6,0.4
				c0.2,0.2,0.3,0.4,0.4,0.7c0.1,0.2,0.2,0.5,0.2,0.8v3.2c0,0.3,0.2,0.6,0.4,0.8s0.5,0.3,0.8,0.3c0.3,0,0.6-0.1,0.8-0.4
				c0.2-0.2,0.3-0.5,0.3-0.8v-3.2c0-0.6-0.1-1.2-0.4-1.6c-0.2-0.5-0.6-1-1-1.3c-0.4-0.4-0.9-0.7-1.3-0.9s-1.1-0.3-1.6-0.3
				c-0.3,0-0.7,0-1.1,0.1s-0.7,0.2-1,0.4v-2c0-0.4-0.1-0.6-0.4-0.9c-0.2-0.2-0.5-0.3-0.8-0.3s-0.6,0.1-0.8,0.3
				c-0.2,0.2-0.3,0.5-0.4,0.8v9.1c0.1,0.3,0.2,0.6,0.4,0.8C71.5,40.1,71.8,40.2,72.1,40.2z M85.6,40c0.4-0.1,0.8-0.3,1.1-0.6
				c0.2-0.2,0.3-0.4,0.3-0.6c0-0.2,0-0.4-0.1-0.6s-0.2-0.4-0.4-0.5c-0.1-0.1-0.4-0.2-0.6-0.2c-0.1,0-0.3,0-0.4,0.1
				c-0.1,0-0.2,0.1-0.3,0.1c-0.1,0-0.2,0.1-0.4,0.1c-0.1,0-0.3,0.1-0.5,0.1c-0.7,0-1.3-0.3-1.6-1h4.6c0.4,0,0.6-0.1,0.9-0.3
				c0.3-0.2,0.4-0.4,0.4-0.7c0-0.6-0.1-1.1-0.4-1.6c-0.2-0.5-0.6-1-1-1.3c-0.4-0.4-0.9-0.7-1.3-1c-0.5-0.2-1.1-0.4-1.6-0.4
				c-0.6,0-1.2,0.1-1.6,0.4c-0.5,0.2-1,0.6-1.3,1c-0.4,0.4-0.7,0.9-1,1.3c-0.2,0.5-0.4,1.1-0.4,1.6s0.1,1.1,0.4,1.6
				c0.2,0.5,0.6,1,1,1.3s0.9,0.7,1.3,1c0.5,0.2,1.1,0.3,1.6,0.3C84.8,40.2,85.2,40.1,85.6,40z M83.4,34.2C83.7,34,84,34,84.3,34
				c0.3,0,0.6,0.1,0.9,0.2c0.3,0.2,0.5,0.4,0.7,0.8h-3.2C83,34.6,83.3,34.3,83.4,34.2z M55.4,35.8c-0.9,0-1.5,0.3-2.1,0.9
				c-0.6,0.6-0.9,1.3-0.9,2v22.2c0,0.9,0.3,1.5,0.9,2.1c0.6,0.6,1.3,0.9,2.1,0.9c0.8,0,1.4-0.3,2-0.9c0.6-0.6,0.9-1.3,0.9-2.1V38.7
				c0-0.8-0.3-1.4-0.9-2C57,36.1,56.3,35.8,55.4,35.8z M79.3,45.4c-1-1-2.1-1.6-3.4-2.1c-1.3-0.5-2.6-0.8-4-0.8
				c-1.5,0-2.9,0.3-4.2,0.9c-1.3,0.6-2.4,1.3-3.4,2.3c-1,1-1.7,2.1-2.2,3.4c-0.6,1.3-0.9,2.7-0.9,4.1v7.9c0,0.8,0.3,1.4,0.9,1.9
				c0.6,0.5,1.3,0.8,2,0.8c0.8,0,1.4-0.3,2-0.9c0.6-0.6,0.9-1.3,0.9-2v-8c0-0.7,0.1-1.3,0.4-1.8c0.3-0.6,0.6-1.1,1.1-1.4
				c0.5-0.4,1-0.8,1.5-1c0.6-0.3,1.2-0.4,1.8-0.4c0.7,0,1.3,0.1,1.9,0.4c0.6,0.3,1.2,0.6,1.5,1.1c0.5,0.5,0.8,1,1.1,1.5
				c0.3,0.6,0.4,1.3,0.4,1.9v7.9c0,0.8,0.3,1.4,0.9,1.9c0.6,0.5,1.3,0.8,2,0.8s1.4-0.3,2-0.9c0.6-0.6,0.8-1.3,0.8-1.9v-8.1
				c0-1.4-0.3-2.8-0.9-4C81,47.4,80.3,46.2,79.3,45.4z M100.2,42.7c-0.8-0.3-1.4-0.3-2.2,0s-1.3,0.9-1.6,1.6l-3.7,8.4l-3.8-8.4
				c-0.3-0.8-0.9-1.3-1.5-1.6c-0.8-0.3-1.4-0.3-2.2,0c-0.8,0.3-1.3,0.9-1.6,1.5c-0.3,0.7-0.3,1.4,0,2.2L90,61.9
				c0.2,0.7,0.6,1.2,1.2,1.4c0.5,0.3,1.1,0.4,1.6,0.4c0.7,0,1.3-0.2,1.7-0.7s0.8-0.9,1-1.2l6.4-15.5c0.3-0.8,0.3-1.5,0-2.2
				C101.6,43.5,101,43,100.2,42.7z M121.4,46c-0.9-1-1.8-1.7-3-2.3c-1.2-0.6-2.4-1-3.8-1.2c-0.2,0-0.4,0-0.6,0h-0.7
				c-2.2,0-4.1,0.6-5.9,1.7c-1.7,1.2-3,2.7-3.9,4.6c-0.3,0.7-0.5,1.3-0.7,2c-0.2,0.7-0.3,1.4-0.3,2.2c0,0.8,0.1,1.4,0.3,2.2
				c0.2,0.7,0.4,1.3,0.7,2c0.9,1.8,2.1,3.4,3.9,4.6c1.7,1.2,3.7,1.7,5.9,1.7c0.9,0,1.6-0.1,2.4-0.3c0.8-0.2,1.4-0.4,2.1-0.8
				c0.1-0.1,0.2-0.1,0.4-0.2c0.1-0.1,0.3-0.1,0.4-0.2c0.6,1,1.4,1.4,2.5,1.4c0.8,0,1.3-0.3,2-0.9c0.6-0.6,0.9-1.3,0.9-2v-7.8
				c0-1.3-0.3-2.6-0.8-3.9C122.8,48.1,122.3,47,121.4,46z M117.9,55.1c-0.3,0.6-0.6,1.2-1.1,1.5c-0.5,0.4-1,0.8-1.5,1.1
				s-1.3,0.4-1.9,0.4c-0.6,0-1.3-0.1-1.8-0.4c-0.6-0.3-1.1-0.6-1.5-1.1c-0.5-0.5-0.9-1-1.1-1.5c-0.3-0.6-0.4-1.3-0.4-1.9
				s0.1-1.3,0.4-1.8s0.6-1.2,1.1-1.5c0.5-0.5,1-0.8,1.5-1.1c0.6-0.3,1.2-0.4,1.8-0.4s1.3,0.1,1.8,0.4s1.2,0.6,1.5,1.1
				c0.5,0.5,0.8,1,1.1,1.5c0.3,0.6,0.4,1.3,0.4,1.8C118.3,53.9,118.2,54.5,117.9,55.1z M144.3,35.8c-0.4,0-0.8,0.1-1.1,0.2
				c-0.4,0.2-0.7,0.4-1,0.6c-0.3,0.3-0.5,0.6-0.7,1c-0.2,0.4-0.3,0.7-0.3,1.1v5c-1.4-0.8-3.1-1.2-4.9-1.2c-1.4,0-2.8,0.3-4,0.9
				c-1.3,0.6-2.4,1.3-3.4,2.3s-1.7,2.1-2.3,3.4c-0.6,1.3-0.9,2.6-0.9,4s0.3,2.8,0.9,4.1c0.6,1.3,1.3,2.4,2.3,3.4s2.1,1.7,3.4,2.3
				c1.3,0.6,2.6,0.9,4,0.9c1.4,0,2.8-0.3,4-0.9c1.3-0.6,2.4-1.3,3.4-2.3s1.7-2.1,2.3-3.4c0.6-1.3,0.9-2.6,0.9-4V38.7
				c0-0.9-0.3-1.5-0.9-2.1C145.7,36.1,145,35.8,144.3,35.8z M141,55.1c-0.3,0.6-0.6,1.1-1.1,1.5c-0.5,0.5-1,0.8-1.5,1.1
				c-0.6,0.3-1.2,0.4-1.8,0.4c-0.7,0-1.3-0.1-1.9-0.4c-0.6-0.3-1.2-0.6-1.5-1.1c-0.5-0.5-0.8-1-1.1-1.5c-0.3-0.6-0.4-1.3-0.4-1.9
				s0.1-1.3,0.4-1.8s0.6-1.2,1.1-1.5c0.5-0.5,1-0.8,1.5-1.1c0.6-0.3,1.3-0.4,1.9-0.4c0.7,0,1.3,0.1,1.8,0.4s1.1,0.6,1.5,1.1
				c0.5,0.5,0.8,1,1.1,1.5c0.3,0.6,0.4,1.3,0.4,1.9C141.4,53.9,141.2,54.4,141,55.1z M167.6,45.8c-1-1-2.1-1.7-3.4-2.3
				s-2.6-0.9-4-0.9c-1.4,0-2.8,0.3-4,0.9c-1.3,0.6-2.4,1.3-3.4,2.3c-1,1-1.7,2.1-2.3,3.4c-0.6,1.3-0.9,2.6-0.9,3.9
				c0,1.4,0.3,2.8,0.9,4c0.6,1.3,1.3,2.5,2.3,3.5s2.1,1.7,3.4,2.3c1.3,0.6,2.6,0.9,4,0.8c1.1,0,2.1-0.2,3.1-0.4
				c1-0.3,1.8-0.7,2.6-1.3c0.5-0.5,0.7-1,0.8-1.5c0.1-0.6,0-1.1-0.2-1.5c-0.2-0.5-0.6-0.9-1-1.3c-0.5-0.3-1-0.5-1.6-0.5
				c-0.3,0-0.6,0-0.9,0.1s-0.5,0.2-0.8,0.3c-0.3,0.1-0.6,0.2-0.9,0.3c-0.3,0.1-0.7,0.1-1.2,0.1c-1.7,0-3-0.9-3.9-2.5h11.7
				c0.9,0,1.5-0.2,2.1-0.6c0.6-0.4,0.9-1.1,0.9-1.8c0-1.4-0.3-2.7-0.9-4C169.4,47.9,168.6,46.7,167.6,45.8z M156.2,50.7
				c0.5-0.9,1.1-1.5,1.7-1.9c0.7-0.4,1.4-0.6,2.2-0.6c0.9,0,1.5,0.2,2.2,0.6c0.7,0.4,1.3,1,1.7,1.9H156.2z M183.4,42.6
				c-1.4,0.1-2.8,0.4-4,0.9c-1.3,0.6-2.4,1.3-3.4,2.2s-1.7,2-2.3,3.3c-0.6,1.3-0.9,2.6-0.9,3.9V61c0.1,0.9,0.4,1.5,0.9,2
				c0.5,0.5,1.2,0.8,2,0.8c0.9,0,1.5-0.3,2-0.8c0.5-0.5,0.8-1.2,0.9-1.9v-8c0-0.7,0.1-1.3,0.4-1.9c0.3-0.6,0.6-1.2,1.1-1.5
				c0.5-0.4,1-0.8,1.5-1.1s1.3-0.4,1.9-0.4c0.9,0,1.5-0.3,2-0.9c0.6-0.6,0.9-1.3,0.9-2c-0.1-0.8-0.4-1.4-0.9-2
				C184.9,42.9,184.2,42.6,183.4,42.6z M205.6,54.6c-0.3-0.7-0.8-1.3-1.3-2c-0.6-0.7-1.3-1.2-2-1.5c-0.8-0.4-1.6-0.6-2.5-0.6h-5
				c-0.4,0-0.7-0.1-0.9-0.3c-0.3-0.2-0.4-0.6-0.4-1s0.1-0.7,0.4-0.9s0.6-0.3,0.9-0.3h7.5c0.7,0,1.3-0.3,1.9-0.9
				c0.6-0.6,0.9-1.3,0.9-2c0-0.7-0.3-1.3-0.8-1.9c-0.5-0.6-1.2-0.9-2-0.9h-7.8c-1,0-1.8,0.2-2.6,0.6s-1.4,0.9-2,1.4
				c-0.6,0.6-1.1,1.3-1.3,2.1c-0.3,0.9-0.5,1.6-0.5,2.5s0.2,1.7,0.5,2.5c0.3,0.8,0.8,1.4,1.3,2.1c0.6,0.7,1.3,1.2,2,1.5
				s1.6,0.6,2.5,0.6h4.8c0.8,0,1.2,0.4,1.2,1.2c0,0.7-0.4,1.1-1.2,1.1h-8.1c-0.8,0-1.4,0.4-1.9,1c-0.5,0.6-0.8,1.3-0.8,2
				c0,0.8,0.3,1.4,0.9,1.9s1.3,0.8,2,0.8h8.1c1.1,0,1.9-0.2,2.8-0.5c0.9-0.3,1.5-0.8,2.1-1.3c0.6-0.6,1.1-1.3,1.4-2.1
				c0.4-0.9,0.6-1.7,0.5-2.7C206.1,56.2,205.9,55.4,205.6,54.6z"/>
		</g>
	</g>
</g>
</svg>
